<?xml version="1.0" standalone="no"?>
<!DOCTYPE svg PUBLIC "-//W3C//DTD SVG 20010904//EN"
 "http://www.w3.org/TR/2001/REC-SVG-20010904/DTD/svg10.dtd">
<svg version="1.0" xmlns="http://www.w3.org/2000/svg"
 width="700.000000pt" height="700.000000pt" viewBox="0 0 700.000000 700.000000"
 preserveAspectRatio="xMidYMid meet">
<metadata>
Created by potrace 1.11, written by Peter Selinger 2001-2013
</metadata>
<g transform="translate(0.000000,700.000000) scale(0.100000,-0.100000)"
fill="#000000" stroke="none">
<path d="M2840 6249 c-46 -29 -58 -46 -66 -96 -13 -89 40 -162 124 -171 119
-11 192 88 152 205 -25 72 -140 106 -210 62z"/>
<path d="M4011 6252 c-93 -47 -94 -205 -1 -254 130 -68 265 62 201 195 -35 71
-125 98 -200 59z"/>
<path d="M1643 5519 c-58 -22 -124 -83 -156 -143 -31 -60 -31 -194 1 -253 28
-54 81 -107 135 -135 61 -32 194 -32 255 0 101 54 166 163 161 272 -9 200
-209 331 -396 259z"/>
<path d="M2805 5515 c-188 -79 -237 -322 -95 -465 57 -58 107 -81 185 -88 83
-6 150 17 214 74 66 59 94 120 95 209 2 162 -110 282 -273 292 -54 3 -77 -1
-126 -22z"/>
<path d="M3982 5522 c-106 -35 -194 -167 -187 -282 6 -116 87 -228 190 -263
134 -46 289 15 354 138 53 102 44 213 -25 307 -75 104 -202 142 -332 100z"/>
<path d="M5143 5520 c-107 -43 -175 -140 -179 -255 -3 -92 22 -160 82 -219
148 -148 400 -94 475 102 26 69 22 168 -10 229 -26 51 -83 109 -135 135 -60
31 -166 34 -233 8z"/>
<path d="M2801 4504 c-193 -51 -321 -221 -318 -427 1 -122 43 -223 129 -307
83 -82 187 -122 312 -121 241 2 425 186 427 427 1 125 -41 233 -122 314 -110
110 -274 154 -428 114z"/>
<path d="M3970 4504 c-209 -55 -330 -227 -318 -451 6 -114 43 -199 121 -277
85 -86 181 -126 303 -127 180 -1 326 89 401 247 60 126 53 287 -17 409 -33 57
-109 134 -160 160 -97 50 -229 66 -330 39z"/>
<path d="M1700 4368 c-95 -16 -171 -76 -211 -165 -54 -118 -33 -231 59 -322
65 -64 127 -90 208 -86 96 4 155 33 218 106 171 200 -13 514 -274 467z"/>
<path d="M5204 4369 c-135 -25 -229 -126 -241 -259 -21 -233 224 -390 433
-278 48 26 111 104 130 160 67 202 -115 415 -322 377z"/>
<path d="M799 4209 c-92 -54 -91 -201 2 -251 103 -55 219 12 219 127 0 112
-123 180 -221 124z"/>
<path d="M6054 4210 c-69 -34 -95 -126 -56 -199 52 -96 210 -94 256 3 48 100
-20 216 -127 216 -18 0 -50 -9 -73 -20z"/>
<path d="M2885 3352 c-192 -17 -342 -143 -391 -326 -17 -62 -11 -197 10 -256
62 -169 199 -272 381 -287 129 -10 254 36 344 127 132 133 160 345 71 520 -43
84 -150 173 -245 202 -40 13 -133 24 -170 20z"/>
<path d="M4050 3353 c-105 -9 -200 -53 -276 -127 -30 -30 -54 -57 -54 -61 0
-4 -8 -19 -19 -33 -52 -75 -68 -250 -32 -354 61 -177 204 -284 393 -294 170
-8 325 74 402 215 27 51 30 58 47 141 50 235 -124 480 -361 506 -25 3 -49 6
-55 7 -5 1 -26 1 -45 0z"/>
<path d="M1656 3191 c-62 -20 -140 -89 -168 -150 -33 -71 -34 -172 -2 -242 60
-129 200 -197 334 -162 123 31 207 130 217 254 18 207 -182 365 -381 300z"/>
<path d="M5175 3196 c-63 -20 -99 -42 -137 -84 -54 -60 -64 -83 -75 -169 -26
-219 209 -383 412 -287 180 85 219 320 78 466 -67 69 -189 101 -278 74z"/>
<path d="M810 3049 c-96 -38 -109 -190 -22 -250 74 -50 193 -20 221 56 30 83
-2 168 -72 194 -35 13 -93 13 -127 0z"/>
<path d="M6046 3042 c-91 -54 -86 -206 9 -252 50 -24 82 -25 133 -5 102 41
109 204 11 257 -42 22 -114 22 -153 0z"/>
<path d="M1643 2020 c-60 -24 -123 -81 -155 -142 -32 -60 -32 -194 0 -254 32
-62 97 -121 161 -145 197 -74 403 80 388 291 -5 75 -29 128 -83 184 -76 78
-209 106 -311 66z"/>
<path d="M2815 2022 c-120 -50 -188 -153 -186 -282 2 -150 121 -271 274 -276
85 -3 143 16 202 68 125 110 135 293 23 414 -56 61 -117 88 -203 90 -46 2 -84
-3 -110 -14z"/>
<path d="M4010 2034 c-148 -61 -224 -164 -216 -296 6 -90 36 -151 107 -211
182 -157 472 -17 472 227 0 100 -68 209 -160 256 -43 22 -171 37 -203 24z"/>
<path d="M5157 2026 c-125 -47 -198 -153 -193 -283 5 -156 113 -270 266 -280
84 -6 159 21 219 79 144 138 108 377 -71 469 -54 28 -166 36 -221 15z"/>
<path d="M2855 1009 c-41 -12 -78 -69 -81 -127 -5 -86 56 -152 141 -152 88 0
145 57 145 145 0 110 -89 169 -205 134z"/>
<path d="M4017 1005 c-56 -29 -77 -65 -77 -131 0 -112 111 -178 216 -128 67
32 93 143 49 210 -38 58 -127 81 -188 49z"/>
</g>
</svg>
