<?xml version="1.0" encoding="utf-8"?>
<!-- Generator: Adobe Illustrator 21.0.2, SVG Export Plug-In . SVG Version: 6.00 Build 0)  -->
<svg version="1.1" id="Layer_1" xmlns="http://www.w3.org/2000/svg" xmlns:xlink="http://www.w3.org/1999/xlink" x="0px" y="0px"
	 viewBox="0 0 48 48" style="enable-background:new 0 0 48 48;" xml:space="preserve">
<style type="text/css">
	.st0{fill:url(#SVGID_1_);}
	.st1{fill:none;}
</style>
<linearGradient id="SVGID_1_" gradientUnits="userSpaceOnUse" x1="10.5875" y1="39.4125" x2="37.4125" y2="12.5875" gradientTransform="matrix(1 0 0 -1 0 50)">
	<stop  offset="0" style="stop-color:#FF3377"/>
	<stop  offset="1" style="stop-color:#00B4CC"/>
</linearGradient>
<path class="st0" d="M12,26c-1.1,0-2,0.9-2,2s0.9,2,2,2s2-0.9,2-2S13.1,26,12,26z M12,34c-1.1,0-2,0.9-2,2s0.9,2,2,2s2-0.9,2-2
	S13.1,34,12,34z M12,18c-1.1,0-2,0.9-2,2s0.9,2,2,2s2-0.9,2-2S13.1,18,12,18z M6,19c-0.6,0-1,0.4-1,1s0.4,1,1,1s1-0.4,1-1
	S6.6,19,6,19z M12,10c-1.1,0-2,0.9-2,2s0.9,2,2,2s2-0.9,2-2S13.1,10,12,10z M42,21c0.6,0,1-0.4,1-1s-0.4-1-1-1s-1,0.4-1,1
	S41.4,21,42,21z M28,14c1.1,0,2-0.9,2-2s-0.9-2-2-2s-2,0.9-2,2S26.9,14,28,14z M28,7c0.6,0,1-0.4,1-1s-0.4-1-1-1s-1,0.4-1,1
	S27.4,7,28,7z M6,27c-0.6,0-1,0.4-1,1s0.4,1,1,1s1-0.4,1-1S6.6,27,6,27z M20,41c-0.6,0-1,0.4-1,1s0.4,1,1,1s1-0.4,1-1S20.6,41,20,41
	z M20,7c0.6,0,1-0.4,1-1s-0.4-1-1-1s-1,0.4-1,1S19.4,7,20,7z M20,14c1.1,0,2-0.9,2-2s-0.9-2-2-2s-2,0.9-2,2S18.9,14,20,14z M20,25
	c-1.7,0-3,1.3-3,3s1.3,3,3,3s3-1.3,3-3S21.7,25,20,25z M36,26c-1.1,0-2,0.9-2,2s0.9,2,2,2s2-0.9,2-2S37.1,26,36,26z M36,34
	c-1.1,0-2,0.9-2,2s0.9,2,2,2s2-0.9,2-2S37.1,34,36,34z M36,18c-1.1,0-2,0.9-2,2s0.9,2,2,2s2-0.9,2-2S37.1,18,36,18z M36,10
	c-1.1,0-2,0.9-2,2s0.9,2,2,2s2-0.9,2-2S37.1,10,36,10z M42,27c-0.6,0-1,0.4-1,1s0.4,1,1,1s1-0.4,1-1S42.6,27,42,27z M28,34
	c-1.1,0-2,0.9-2,2s0.9,2,2,2s2-0.9,2-2S29.1,34,28,34z M28,41c-0.6,0-1,0.4-1,1s0.4,1,1,1s1-0.4,1-1S28.6,41,28,41z M20,17
	c-1.7,0-3,1.3-3,3s1.3,3,3,3s3-1.3,3-3S21.7,17,20,17z M20,34c-1.1,0-2,0.9-2,2s0.9,2,2,2s2-0.9,2-2S21.1,34,20,34z M28,25
	c-1.7,0-3,1.3-3,3s1.3,3,3,3s3-1.3,3-3S29.7,25,28,25z M28,17c-1.7,0-3,1.3-3,3s1.3,3,3,3s3-1.3,3-3S29.7,17,28,17z"/>
<path class="st1" d="M0,0h48v48H0V0z"/>
</svg>
